<svg xmlns="http://www.w3.org/2000/svg" width="256" height="256" viewBox="0 0 256 256" role="img" aria-labelledby="lbl">
  <title id="lbl">CSP DON DE SOINS (AWCD) MBANDJOCK</title>
  <defs>
    <radialGradient id="bg" cx="50%" cy="45%" r="55%">
      <stop offset="0%" stop-color="#5b3fa0"/>
      <stop offset="100%" stop-color="#2a1a6e"/>
    </radialGradient>
    <radialGradient id="gold" cx="50%" cy="50%" r="50%">
      <stop offset="0%" stop-color="#f5d020"/>
      <stop offset="100%" stop-color="#c8860a"/>
    </radialGradient>
  </defs>

  <!-- Background circle -->
  <circle cx="128" cy="128" r="124" fill="url(#bg)"/>

  <!-- Outer white ring -->
  <circle cx="128" cy="128" r="115" fill="none" stroke="#ffffff" stroke-width="2.5"/>
  <circle cx="128" cy="128" r="84" fill="none" stroke="#ffffff" stroke-width="2"/>

  <!-- Gold centre -->
  <circle cx="128" cy="128" r="42" fill="url(#gold)"/>
  <circle cx="128" cy="128" r="40" fill="none" stroke="#ffffff" stroke-width="1.5"/>

  <!-- People silhouettes around the ring (16 figures) -->
  <g fill="#ffffff">
    <g transform="rotate(0   128 128) translate(128 18)"><ellipse cx="0" cy="-5" rx="4" ry="4.5"/><path d="M-5 0 Q-4-6 0-4 Q4-6 5 0 Q2 10 0 12 Q-2 10-5 0Z"/><line x1="-5" y1="2" x2="-9" y2="7" stroke="#ffffff" stroke-width="1.5"/><line x1="5" y1="2" x2="9" y2="7" stroke="#ffffff" stroke-width="1.5"/></g>
    <g transform="rotate(22.5 128 128) translate(128 18)"><ellipse cx="0" cy="-5" rx="4" ry="4.5"/><path d="M-5 0 Q-4-6 0-4 Q4-6 5 0 Q2 10 0 12 Q-2 10-5 0Z"/><line x1="-5" y1="2" x2="-9" y2="7" stroke="#ffffff" stroke-width="1.5"/><line x1="5" y1="2" x2="9" y2="7" stroke="#ffffff" stroke-width="1.5"/></g>
    <g transform="rotate(45  128 128) translate(128 18)"><ellipse cx="0" cy="-5" rx="4" ry="4.5"/><path d="M-5 0 Q-4-6 0-4 Q4-6 5 0 Q2 10 0 12 Q-2 10-5 0Z"/><line x1="-5" y1="2" x2="-9" y2="7" stroke="#ffffff" stroke-width="1.5"/><line x1="5" y1="2" x2="9" y2="7" stroke="#ffffff" stroke-width="1.5"/></g>
    <g transform="rotate(67.5 128 128) translate(128 18)"><ellipse cx="0" cy="-5" rx="4" ry="4.5"/><path d="M-5 0 Q-4-6 0-4 Q4-6 5 0 Q2 10 0 12 Q-2 10-5 0Z"/><line x1="-5" y1="2" x2="-9" y2="7" stroke="#ffffff" stroke-width="1.5"/><line x1="5" y1="2" x2="9" y2="7" stroke="#ffffff" stroke-width="1.5"/></g>
    <g transform="rotate(90  128 128) translate(128 18)"><ellipse cx="0" cy="-5" rx="4" ry="4.5"/><path d="M-5 0 Q-4-6 0-4 Q4-6 5 0 Q2 10 0 12 Q-2 10-5 0Z"/><line x1="-5" y1="2" x2="-9" y2="7" stroke="#ffffff" stroke-width="1.5"/><line x1="5" y1="2" x2="9" y2="7" stroke="#ffffff" stroke-width="1.5"/></g>
    <g transform="rotate(112.5 128 128) translate(128 18)"><ellipse cx="0" cy="-5" rx="4" ry="4.5"/><path d="M-5 0 Q-4-6 0-4 Q4-6 5 0 Q2 10 0 12 Q-2 10-5 0Z"/><line x1="-5" y1="2" x2="-9" y2="7" stroke="#ffffff" stroke-width="1.5"/><line x1="5" y1="2" x2="9" y2="7" stroke="#ffffff" stroke-width="1.5"/></g>
    <g transform="rotate(135 128 128) translate(128 18)"><ellipse cx="0" cy="-5" rx="4" ry="4.5"/><path d="M-5 0 Q-4-6 0-4 Q4-6 5 0 Q2 10 0 12 Q-2 10-5 0Z"/><line x1="-5" y1="2" x2="-9" y2="7" stroke="#ffffff" stroke-width="1.5"/><line x1="5" y1="2" x2="9" y2="7" stroke="#ffffff" stroke-width="1.5"/></g>
    <g transform="rotate(157.5 128 128) translate(128 18)"><ellipse cx="0" cy="-5" rx="4" ry="4.5"/><path d="M-5 0 Q-4-6 0-4 Q4-6 5 0 Q2 10 0 12 Q-2 10-5 0Z"/><line x1="-5" y1="2" x2="-9" y2="7" stroke="#ffffff" stroke-width="1.5"/><line x1="5" y1="2" x2="9" y2="7" stroke="#ffffff" stroke-width="1.5"/></g>
    <g transform="rotate(180 128 128) translate(128 18)"><ellipse cx="0" cy="-5" rx="4" ry="4.5"/><path d="M-5 0 Q-4-6 0-4 Q4-6 5 0 Q2 10 0 12 Q-2 10-5 0Z"/><line x1="-5" y1="2" x2="-9" y2="7" stroke="#ffffff" stroke-width="1.5"/><line x1="5" y1="2" x2="9" y2="7" stroke="#ffffff" stroke-width="1.5"/></g>
    <g transform="rotate(202.5 128 128) translate(128 18)"><ellipse cx="0" cy="-5" rx="4" ry="4.5"/><path d="M-5 0 Q-4-6 0-4 Q4-6 5 0 Q2 10 0 12 Q-2 10-5 0Z"/><line x1="-5" y1="2" x2="-9" y2="7" stroke="#ffffff" stroke-width="1.5"/><line x1="5" y1="2" x2="9" y2="7" stroke="#ffffff" stroke-width="1.5"/></g>
    <g transform="rotate(225 128 128) translate(128 18)"><ellipse cx="0" cy="-5" rx="4" ry="4.5"/><path d="M-5 0 Q-4-6 0-4 Q4-6 5 0 Q2 10 0 12 Q-2 10-5 0Z"/><line x1="-5" y1="2" x2="-9" y2="7" stroke="#ffffff" stroke-width="1.5"/><line x1="5" y1="2" x2="9" y2="7" stroke="#ffffff" stroke-width="1.5"/></g>
    <g transform="rotate(247.5 128 128) translate(128 18)"><ellipse cx="0" cy="-5" rx="4" ry="4.5"/><path d="M-5 0 Q-4-6 0-4 Q4-6 5 0 Q2 10 0 12 Q-2 10-5 0Z"/><line x1="-5" y1="2" x2="-9" y2="7" stroke="#ffffff" stroke-width="1.5"/><line x1="5" y1="2" x2="9" y2="7" stroke="#ffffff" stroke-width="1.5"/></g>
    <g transform="rotate(270 128 128) translate(128 18)"><ellipse cx="0" cy="-5" rx="4" ry="4.5"/><path d="M-5 0 Q-4-6 0-4 Q4-6 5 0 Q2 10 0 12 Q-2 10-5 0Z"/><line x1="-5" y1="2" x2="-9" y2="7" stroke="#ffffff" stroke-width="1.5"/><line x1="5" y1="2" x2="9" y2="7" stroke="#ffffff" stroke-width="1.5"/></g>
    <g transform="rotate(292.5 128 128) translate(128 18)"><ellipse cx="0" cy="-5" rx="4" ry="4.5"/><path d="M-5 0 Q-4-6 0-4 Q4-6 5 0 Q2 10 0 12 Q-2 10-5 0Z"/><line x1="-5" y1="2" x2="-9" y2="7" stroke="#ffffff" stroke-width="1.5"/><line x1="5" y1="2" x2="9" y2="7" stroke="#ffffff" stroke-width="1.5"/></g>
    <g transform="rotate(315 128 128) translate(128 18)"><ellipse cx="0" cy="-5" rx="4" ry="4.5"/><path d="M-5 0 Q-4-6 0-4 Q4-6 5 0 Q2 10 0 12 Q-2 10-5 0Z"/><line x1="-5" y1="2" x2="-9" y2="7" stroke="#ffffff" stroke-width="1.5"/><line x1="5" y1="2" x2="9" y2="7" stroke="#ffffff" stroke-width="1.5"/></g>
    <g transform="rotate(337.5 128 128) translate(128 18)"><ellipse cx="0" cy="-5" rx="4" ry="4.5"/><path d="M-5 0 Q-4-6 0-4 Q4-6 5 0 Q2 10 0 12 Q-2 10-5 0Z"/><line x1="-5" y1="2" x2="-9" y2="7" stroke="#ffffff" stroke-width="1.5"/><line x1="5" y1="2" x2="9" y2="7" stroke="#ffffff" stroke-width="1.5"/></g>
  </g>

  <!-- Curved text on arc: top -->
  <path id="top-arc" d="M 38,128 A 90,90 0 1,1 218,128" fill="none"/>
  <text font-family="Arial, sans-serif" font-size="12.5" font-weight="bold" fill="#ffffff" letter-spacing="1.5">
    <textPath href="#top-arc" startOffset="8%">CSP DON DE SOINS (AWCD)</textPath>
  </text>

  <!-- Curved text on arc: bottom -->
  <path id="bot-arc" d="M 38,128 A 90,90 0 0,0 218,128" fill="none"/>
  <text font-family="Arial, sans-serif" font-size="13" font-weight="bold" fill="#ffffff" letter-spacing="2">
    <textPath href="#bot-arc" startOffset="18%">MBANDJOCK</textPath>
  </text>
</svg>
